<svg width="640" height="440" viewBox="0 0 640 440" fill="none" xmlns="http://www.w3.org/2000/svg" role="img" aria-labelledby="title desc">
  <title id="title">许清岚头像</title>
  <desc id="desc">航模与工程设计方向的示例头像。</desc>
  <rect width="640" height="440" fill="#F8F1E2"/>
  <rect x="54" y="62" width="532" height="316" rx="24" fill="#FBFCF8"/>
  <path d="M83 292C177 224 281 213 395 259C461 286 509 286 557 259V378H83V292Z" fill="#26766B"/>
  <path d="M92 264C185 188 312 175 438 220C489 238 528 237 557 225" stroke="#184D47" stroke-width="18" stroke-linecap="round"/>
  <path d="M177 163L476 100L349 226L318 336L272 249L177 163Z" fill="#184D47"/>
  <path d="M476 100L301 235" stroke="#F0B43C" stroke-width="12" stroke-linecap="round"/>
  <path d="M272 249L349 226" stroke="#FBFCF8" stroke-width="10" stroke-linecap="round"/>
  <circle cx="137" cy="116" r="31" fill="#F0B43C"/>
  <path d="M115 347H525" stroke="#B53B31" stroke-width="10" stroke-linecap="round"/>
</svg>
